<svg width="150" height="150" viewBox="0 0 150 150" fill="none" xmlns="http://www.w3.org/2000/svg">
<rect width="150" height="150" rx="40" fill="#282828"/>
<g clip-path="url(#clip0_201_6393)">
<path d="M31.0533 70.5823C35.0126 61.8107 41.746 54.5841 50.2164 50.0158C58.6867 45.4475 68.4242 43.7909 77.9287 45.3012C87.4332 46.8114 96.1775 51.4048 102.815 58.3736C109.452 65.3425 113.614 74.3003 114.659 83.8671M123.368 63.8437L117.257 84.6309L96.4701 78.5204" stroke="#FEEA14" stroke-width="8.66667" stroke-linecap="round" stroke-linejoin="round"/>
<path d="M78.0333 106.633H60.7L75.7366 86.2023C76.66 85.1753 77.3292 83.941 77.6891 82.6012C78.0489 81.2613 78.0892 79.8541 77.8065 78.4955C77.5238 77.1368 76.9262 75.8655 76.063 74.7862C75.1998 73.7068 74.0956 72.8503 72.8413 72.2871C71.587 71.7238 70.2184 71.47 68.8482 71.5465C67.478 71.623 66.1453 72.0276 64.9599 72.727C63.7744 73.4265 62.77 74.4007 62.0294 75.5696C61.2889 76.7385 60.8332 78.0686 60.7 79.4505" stroke="#FEEA14" stroke-width="8.66667" stroke-linecap="round" stroke-linejoin="round"/>
</g>
<defs>
<clipPath id="clip0_201_6393">
<rect width="130" height="130" fill="white" transform="matrix(-1 0 0 1 140 10)"/>
</clipPath>
</defs>
</svg>
