<svg width="150" height="150" viewBox="0 0 150 150" fill="none" xmlns="http://www.w3.org/2000/svg">
<rect width="150" height="150" rx="40" fill="#E1BA2E"/>
<g clip-path="url(#clip0_201_6212)">
<path d="M75 91.25V91.3042M75 58.75V69.5833V58.75Z" stroke="black" stroke-width="8.125" stroke-linecap="round" stroke-linejoin="round"/>
<path d="M37.0833 112.915H112.917C114.684 112.902 116.422 112.458 117.978 111.62C119.534 110.781 120.862 109.575 121.844 108.106C122.827 106.637 123.436 104.95 123.617 103.192C123.798 101.433 123.546 99.6575 122.883 98.019L84.425 31.6648C83.4881 29.9716 82.1148 28.5602 80.4478 27.5773C78.7808 26.5945 76.881 26.0762 74.9458 26.0762C73.0106 26.0762 71.1108 26.5945 69.4438 27.5773C67.7768 28.5602 66.4035 29.9716 65.4666 31.6648L27.0083 98.019C26.358 99.62 26.1001 101.353 26.2562 103.074C26.4123 104.795 26.9778 106.454 27.9056 107.912C28.8333 109.37 30.0964 110.585 31.5893 111.455C33.0822 112.325 34.7617 112.826 36.4875 112.915" stroke="black" stroke-width="8.125" stroke-linecap="round" stroke-linejoin="round"/>
</g>
<defs>
<clipPath id="clip0_201_6212">
<rect width="130" height="130" fill="white" transform="translate(10 10)"/>
</clipPath>
</defs>
</svg>
