<svg width="1200" height="1698" viewBox="0 0 1200 1698" fill="none" xmlns="http://www.w3.org/2000/svg">
<g clip-path="url(#clip0_201_6242)">
<path d="M706.066 955.066L706.419 955.419M493.934 742.934L564.644 813.644L493.934 742.934Z" stroke="#E1BA2E" stroke-width="75" stroke-linecap="round" stroke-linejoin="round"/>
<path d="M599.975 1343.95L1094.95 848.976C1106.41 837.358 1114.84 823.114 1119.53 807.486C1124.22 791.858 1125.01 775.32 1121.84 759.316C1118.66 743.311 1111.62 728.327 1101.33 715.668C1091.03 703.01 1077.8 693.063 1062.78 686.695L378.651 504.615C361.484 499.678 343.307 499.429 326.012 503.895C308.716 508.361 292.932 517.378 280.301 530.009C267.67 542.64 258.653 558.424 254.187 575.719C249.721 593.015 249.97 611.191 254.907 628.359L436.987 1312.48C443.193 1327.18 452.823 1340.18 465.075 1350.39C477.327 1360.61 491.845 1367.74 507.417 1371.2C522.988 1374.66 539.162 1374.35 554.587 1370.28C570.012 1366.22 584.241 1358.52 596.086 1347.84" stroke="#E1BA2E" stroke-width="75" stroke-linecap="round" stroke-linejoin="round"/>
</g>
<defs>
<clipPath id="clip0_201_6242">
<rect width="1200" height="1200" fill="white" transform="translate(-248.528 849) rotate(-45)"/>
</clipPath>
</defs>
</svg>
