<svg width="1200" height="1698" viewBox="0 0 1200 1698" fill="none" xmlns="http://www.w3.org/2000/svg">
<g clip-path="url(#clip0_201_6358)">
<path d="M211.1 1096.5L317.166 1131.85L529.298 919.719" stroke="white" stroke-width="75" stroke-linecap="round" stroke-linejoin="round"/>
<path d="M493.934 742.934C475.18 761.687 464.645 787.123 464.645 813.645C464.645 840.166 475.18 865.602 493.934 884.355L600 990.421C638.891 1029.31 702.53 1029.31 741.421 990.421L988.909 742.934C1007.66 724.18 1018.2 698.745 1018.2 672.223C1018.2 645.702 1007.66 620.266 988.909 601.513C871.882 484.486 701.47 535.398 564.644 672.223L493.934 742.934Z" stroke="white" stroke-width="75" stroke-linecap="round" stroke-linejoin="round"/>
<path d="M529.289 707.58L423.223 601.514" stroke="white" stroke-width="75" stroke-linecap="round" stroke-linejoin="round"/>
<path d="M140.381 884.355L670.711 354.025" stroke="white" stroke-width="75" stroke-linecap="round" stroke-linejoin="round"/>
<path d="M603.519 640.387L741.404 778.273L935.859 583.818" stroke="white" stroke-width="75" stroke-linecap="round" stroke-linejoin="round"/>
<path d="M953.562 990.429L847.496 884.363" stroke="white" stroke-width="75" stroke-linecap="round" stroke-linejoin="round"/>
<path d="M1094.98 849.009L812.141 1131.85" stroke="white" stroke-width="75" stroke-linecap="round" stroke-linejoin="round"/>
</g>
<defs>
<clipPath id="clip0_201_6358">
<rect width="1200" height="1200" fill="white" transform="translate(-248.528 849) rotate(-45)"/>
</clipPath>
</defs>
</svg>
