<svg width="98" height="98" viewBox="0 0 98 98" fill="none" xmlns="http://www.w3.org/2000/svg">
<path d="M49 5.66602C72.9308 5.66602 92.3333 23.8552 92.3333 46.291C92.3333 56.5881 88.2437 65.9914 81.5054 73.1577L81.5 86.916C81.5 88.3526 80.9293 89.7304 79.9135 90.7462C78.8976 91.762 77.5199 92.3327 76.0833 92.3327H21.9166C20.48 92.3327 19.1023 91.762 18.0865 90.7462C17.0706 89.7304 16.5 88.3526 16.5 86.916V73.1577C9.75621 65.9968 5.66663 56.5935 5.66663 46.291C5.66663 23.8552 25.0691 5.66602 49 5.66602Z" stroke="black" stroke-width="10.8333" stroke-linecap="round" stroke-linejoin="round"/>
<path d="M38.1666 76.084V92.334" stroke="black" stroke-width="10.8333" stroke-linecap="round" stroke-linejoin="round"/>
<path d="M59.8334 76.084V92.334" stroke="black" stroke-width="10.8333" stroke-linecap="round" stroke-linejoin="round"/>
<path d="M32.75 48.9993C35.7416 48.9993 38.1667 46.5742 38.1667 43.5827C38.1667 40.5911 35.7416 38.166 32.75 38.166C29.7585 38.166 27.3334 40.5911 27.3334 43.5827C27.3334 46.5742 29.7585 48.9993 32.75 48.9993Z" stroke="black" stroke-width="10.8333" stroke-linecap="round" stroke-linejoin="round"/>
<path d="M65.25 48.9993C68.2416 48.9993 70.6667 46.5742 70.6667 43.5827C70.6667 40.5911 68.2416 38.166 65.25 38.166C62.2585 38.166 59.8334 40.5911 59.8334 43.5827C59.8334 46.5742 62.2585 48.9993 65.25 48.9993Z" stroke="black" stroke-width="10.8333" stroke-linecap="round" stroke-linejoin="round"/>
</svg>
