<svg width="102" height="77" viewBox="0 0 102 77" fill="none" xmlns="http://www.w3.org/2000/svg">
<path d="M5.05333 36.5823C9.01256 27.8107 15.746 20.5841 24.2164 16.0158C32.6867 11.4475 42.4242 9.7909 51.9287 11.3012C61.4332 12.8114 70.1775 17.4048 76.8146 24.3736C83.4518 31.3425 87.6135 40.3003 88.6588 49.8671M97.3677 29.8437L91.2572 50.6309L70.4701 44.5204" stroke="#FEEA14" stroke-width="8.66667" stroke-linecap="round" stroke-linejoin="round"/>
<path d="M52.0333 72.6332H34.7L49.7366 52.2023C50.66 51.1753 51.3292 49.941 51.6891 48.6012C52.0489 47.2613 52.0892 45.8541 51.8065 44.4955C51.5238 43.1368 50.9262 41.8655 50.063 40.7862C49.1998 39.7068 48.0956 38.8503 46.8413 38.2871C45.587 37.7238 44.2184 37.47 42.8482 37.5465C41.478 37.623 40.1453 38.0276 38.9599 38.727C37.7744 39.4265 36.77 40.4007 36.0294 41.5696C35.2889 42.7385 34.8332 44.0686 34.7 45.4505" stroke="#FEEA14" stroke-width="8.66667" stroke-linecap="round" stroke-linejoin="round"/>
</svg>
