<svg width="66" height="110" viewBox="0 0 66 110" fill="none" xmlns="http://www.w3.org/2000/svg">
<path d="M11.3337 103.755H54.667C56.1036 103.755 57.4813 103.185 58.4972 102.169C59.513 101.153 60.0837 99.7751 60.0837 98.3385V44.1719C60.0837 39.8621 58.3716 35.7289 55.3241 32.6814C52.2767 29.6339 48.1434 27.9219 43.8337 27.9219H22.167C17.8572 27.9219 13.724 29.6339 10.6765 32.6814C7.62904 35.7289 5.91699 39.8621 5.91699 44.1719V98.3385C5.91699 99.7751 6.48768 101.153 7.5035 102.169C8.51932 103.185 9.89707 103.755 11.3337 103.755Z" stroke="white" stroke-width="10.8333" stroke-linecap="round" stroke-linejoin="round"/>
<path d="M22.167 65.8281H43.8337" stroke="white" stroke-width="10.8333" stroke-linecap="round" stroke-linejoin="round"/>
<path d="M33 55V76.6667" stroke="white" stroke-width="10.8333" stroke-linecap="round" stroke-linejoin="round"/>
<path d="M22.167 27.9167V11.6667C22.167 10.2301 22.7377 8.85233 23.7535 7.8365C24.7693 6.82068 26.1471 6.25 27.5837 6.25H38.417C39.8536 6.25 41.2313 6.82068 42.2472 7.8365C43.263 8.85233 43.8337 10.2301 43.8337 11.6667V27.9167" stroke="white" stroke-width="10.8333" stroke-linecap="round" stroke-linejoin="round"/>
</svg>
