<svg width="106" height="95" viewBox="0 0 106 95" fill="none" xmlns="http://www.w3.org/2000/svg">
<path d="M53 69.25V69.3042M53 36.75V47.5833V36.75Z" stroke="black" stroke-width="8.125" stroke-linecap="round" stroke-linejoin="round"/>
<path d="M15.0834 90.9148H90.9167C92.6842 90.9024 94.4218 90.4578 95.978 89.6196C97.5341 88.7814 98.8616 87.5752 99.8445 86.1061C100.827 84.6371 101.436 82.9499 101.617 81.1916C101.798 79.4334 101.546 77.6575 100.883 76.019L62.425 9.66484C61.4882 7.97158 60.1149 6.56017 58.4479 5.57735C56.7809 4.59453 54.881 4.07617 52.9459 4.07617C51.0107 4.07617 49.1109 4.59453 47.4439 5.57735C45.7769 6.56017 44.4036 7.97158 43.4667 9.66484L5.00837 76.019C4.35806 77.62 4.10018 79.3534 4.25627 81.0744C4.41236 82.7954 4.97789 84.4541 5.90565 85.912C6.83341 87.3699 8.09647 88.5847 9.58939 89.455C11.0823 90.3253 12.7618 90.8259 14.4875 90.9148" stroke="black" stroke-width="8.125" stroke-linecap="round" stroke-linejoin="round"/>
</svg>
