<svg width="106" height="79" viewBox="0 0 106 79" fill="none" xmlns="http://www.w3.org/2000/svg">
<path d="M4.25 26.166L9.66667 36.9993H42.1667" stroke="black" stroke-width="8.125" stroke-linecap="round" stroke-linejoin="round"/>
<path d="M53.0001 20.75C50.1269 20.75 47.3714 21.8914 45.3398 23.923C43.3081 25.9547 42.1667 28.7102 42.1667 31.5833V47.8333C42.1667 53.7917 47.0417 58.6667 53.0001 58.6667H90.9167C93.7899 58.6667 96.5454 57.5253 98.5771 55.4937C100.609 53.462 101.75 50.7065 101.75 47.8333C101.75 29.9042 84.7959 20.75 63.8334 20.75H53.0001Z" stroke="black" stroke-width="8.125" stroke-linecap="round" stroke-linejoin="round"/>
<path d="M58.4167 20.75V4.5" stroke="black" stroke-width="8.125" stroke-linecap="round" stroke-linejoin="round"/>
<path d="M15.0833 4.5H96.3332" stroke="black" stroke-width="8.125" stroke-linecap="round" stroke-linejoin="round"/>
<path d="M69.25 21.2891V42.4141H99.0417" stroke="black" stroke-width="8.125" stroke-linecap="round" stroke-linejoin="round"/>
<path d="M69.25 74.916V58.666" stroke="black" stroke-width="8.125" stroke-linecap="round" stroke-linejoin="round"/>
<path d="M90.9166 74.916H47.5833" stroke="black" stroke-width="8.125" stroke-linecap="round" stroke-linejoin="round"/>
</svg>
